<svg width="48" height="57" viewBox="0 0 48 57" fill="none" xmlns="http://www.w3.org/2000/svg">
<path d="M24.1992 37.7V49" stroke="#1875F0" stroke-width="2"/>
<path fill-rule="evenodd" clip-rule="evenodd" d="M13.1992 56H34.9992C34.9992 56 35.2992 49 28.1992 49C21.0992 49 19.0992 49 19.0992 49C19.0992 49 13.2992 49.5 13.1992 56V56Z" stroke="#1875F0" stroke-width="2"/>
<path fill-rule="evenodd" clip-rule="evenodd" d="M10 8H1C1 8 1 14.8 1 20.8C1 29.6 10 27.9 10 27.9V8V8Z" stroke="#1875F0" stroke-width="2"/>
<path fill-rule="evenodd" clip-rule="evenodd" d="M47 8C47 8 47 14.8 47 20.8C47 29.6 38 27.9 38 27.9V8L47 8Z" stroke="#1875F0" stroke-width="2"/>
<path fill-rule="evenodd" clip-rule="evenodd" d="M10 1C10 1 10 9.5 10 12C10 18 10 28.1 10 28.1C10 28.1 12.3 38.1 24.1 38.1C35.9 38.1 38 26.7 38 26.7V1.1L10 1V1Z" stroke="#1875F0" stroke-width="2"/>
</svg>
