<svg width="30" height="30" viewBox="0 0 30 30" fill="none" xmlns="http://www.w3.org/2000/svg">
<mask id="mask0" mask-type="alpha" maskUnits="userSpaceOnUse" x="6" y="6" width="18" height="18">
<path fill-rule="evenodd" clip-rule="evenodd" d="M16 6H14V16H16V6ZM20.83 8.17L19.41 9.59C20.99 10.86 22 12.81 22 15C22 18.87 18.87 22 15 22C11.13 22 8 18.87 8 15C8 12.81 9.01 10.86 10.58 9.58L9.17 8.17C7.23 9.82 6 12.26 6 15C6 19.97 10.03 24 15 24C19.97 24 24 19.97 24 15C24 12.26 22.77 9.82 20.83 8.17Z" fill="white"/>
</mask>
<g mask="url(#mask0)">
<rect x="2" y="2" width="26" height="26" fill="#D8D8D8"/>
</g>
</svg>
