<svg width="31" height="30" viewBox="0 0 31 30" fill="none" xmlns="http://www.w3.org/2000/svg">
<mask id="mask0" mask-type="alpha" maskUnits="userSpaceOnUse" x="5" y="4" width="21" height="21">
<path fill-rule="evenodd" clip-rule="evenodd" d="M14.268 20.4864H16.2481V18.5486H14.268V20.4864ZM15.258 4.98442C9.79287 4.98442 5.35742 9.32497 5.35742 14.6731C5.35742 20.0213 9.79287 24.3619 15.258 24.3619C20.7231 24.3619 25.1585 20.0213 25.1585 14.6731C25.1585 9.32497 20.7231 4.98442 15.258 4.98442ZM15.2577 22.4241C10.8915 22.4241 7.33724 18.9459 7.33724 14.6731C7.33724 10.4004 10.8915 6.92216 15.2577 6.92216C19.6238 6.92216 23.1781 10.4004 23.1781 14.6731C23.1781 18.9459 19.6238 22.4241 15.2577 22.4241ZM15.2578 8.85991C13.0698 8.85991 11.2976 10.5942 11.2976 12.7354H13.2777C13.2777 11.6696 14.1687 10.7977 15.2578 10.7977C16.3469 10.7977 17.2379 11.6696 17.2379 12.7354C17.2379 14.6731 14.2677 14.4309 14.2677 17.5798H16.2479C16.2479 15.3998 19.218 15.1576 19.218 12.7354C19.218 10.5942 17.4458 8.85991 15.2578 8.85991Z" fill="white"/>
</mask>
<g mask="url(#mask0)">
<rect x="2.38672" y="2.0778" width="25.7414" height="25.1907" fill="#D8D8D8"/>
</g>
</svg>
